<?xml version="1.0" encoding="utf-8"?>
<!-- Generator: Adobe Illustrator 23.0.1, SVG Export Plug-In . SVG Version: 6.00 Build 0)  -->
<svg version="1.1" id="Layer_1" xmlns="http://www.w3.org/2000/svg" xmlns:xlink="http://www.w3.org/1999/xlink" x="0px" y="0px"
	 viewBox="0 0 140 123" style="enable-background:new 0 0 140 123;" xml:space="preserve">
<style type="text/css">
	.st0{fill:#EBECED;}
	.st1{fill:#F6F6F6;}
	.st2{fill:#A4C2F7;}
	.st3{fill:#D4E1F4;}
	.st4{fill:#E3E7F2;}
	.st5{fill:#FFFFFF;}
	.st6{fill:#428DFF;}
</style>
<g>
	<path class="st0" d="M102.78,5.08c-0.6-0.57-1.43-0.83-2.24-0.7L58.73,10.9L47.98,45.49c-0.29,0.94-0.05,1.96,0.63,2.67
		l29.89,31.11l42.26-8.69c0.96-0.2,1.74-0.91,2.03-1.84l10.75-34.59L102.78,5.08z"/>
	<path class="st1" d="M133.53,34.16l-43.82,9.01L58.73,10.9l41.81-6.52c0.82-0.13,1.64,0.13,2.24,0.7L133.53,34.16z"/>
	<path class="st2" d="M89.71,43.16L78.49,79.28L48.6,48.16c-0.68-0.71-0.92-1.73-0.63-2.67L58.73,10.9L89.71,43.16z"/>
	<path class="st2" d="M133.53,34.16l-10.75,34.59c-0.29,0.94-1.07,1.64-2.03,1.84l-42.26,8.69l11.23-36.11l39.28-8.07L133.53,34.16z
		"/>
	<path class="st3" d="M128.99,35.09l-10.49,33.74c-0.29,0.94-1.07,1.64-2.03,1.84l-37.73,7.76l10.96-35.27L128.99,35.09z"/>
	<path class="st2" d="M109.96,18.98c-7.37,1.67-16.89-6.24-22.42-4.99c-1.84,0.42-5.53,1.25-1.68,5.41c3.55,3.84,5.5,3.3,6,3.21
		c-9.17,2.04-14.64-2.94-14.64-2.94l5.12,5.55l5.12,5.55c0,0-3.43-5.67,5.69-7.77c-0.45,0.13-3.16,0.86,0.4,4.7
		c2.24,2.79,5.94,3.94,9.37,2.91C108.44,29.38,102.59,20.65,109.96,18.98z"/>
	<path class="st4" d="M62.01,37.91c0,0,2.75,13.32,1.55,17.19c1.2-3.87,8.76-6.03,8.76-6.03s-2.75-13.32-1.55-17.19
		C69.57,35.75,62.01,37.91,62.01,37.91z"/>
	<path class="st4" d="M114.61,44.57c-4.67,1.05-6.19,5.95-6.19,5.95s1.52-4.9-3.14-3.84s-7.74,6.3-8.25,7.93
		c-2.54,8.16,8.35,5.7,5.82,13.85c2.54-8.16,13.42-10.62,15.96-18.77C119.31,48.06,119.27,43.52,114.61,44.57z"/>
	<path class="st5" d="M48.6,48.16l29.89,31.11l2.27-0.47L52.47,49.36c-0.68-0.71-0.92-1.73-0.63-2.67L62.6,12.11l40.88-6.37
		l-0.69-0.65c-0.6-0.57-1.43-0.83-2.24-0.7L58.73,10.9L47.98,45.49C47.69,46.43,47.93,47.45,48.6,48.16z"/>
	<path class="st5" d="M60.02,11.3L49.27,45.89l-2.58-0.8L57.44,10.5L60.02,11.3z"/>
	<g>
		<path class="st6" d="M134.85,34.39c0.03-0.12,0.04-0.24,0.02-0.36c0-0.07-0.01-0.13-0.03-0.2c-0.01-0.05-0.03-0.1-0.05-0.15
			c-0.02-0.06-0.05-0.13-0.08-0.19c-0.03-0.04-0.06-0.09-0.09-0.13c-0.03-0.04-0.05-0.08-0.08-0.12c-0.01-0.01-0.03-0.02-0.04-0.04
			c-0.01-0.01-0.02-0.03-0.03-0.04L103.71,4.1l-0.01,0c-0.9-0.85-2.14-1.23-3.37-1.05L58.52,9.57c-0.07,0.01-0.13,0.03-0.2,0.06
			c-0.04,0.01-0.07,0.02-0.11,0.03c-0.15,0.06-0.28,0.15-0.4,0.26c0,0.01-0.02,0.01-0.03,0.02c-0.01,0.02-0.03,0.04-0.04,0.06
			c-0.09,0.09-0.17,0.2-0.22,0.32c-0.02,0.03-0.04,0.07-0.05,0.1c-0.01,0.02-0.02,0.04-0.03,0.06l-0.01,0.03l-1.6,5.16
			c-0.22,0.71,0.18,1.47,0.89,1.69c0.71,0.22,1.47-0.18,1.69-0.89l0.92-2.97l28.85,30.04L77.88,76.69l-28.3-29.46
			c-0.34-0.35-0.46-0.87-0.32-1.34l5.94-19.11c0.22-0.71-0.18-1.47-0.89-1.69c-0.71-0.22-1.47,0.18-1.69,0.89l-5.94,19.11
			c-0.44,1.41-0.08,2.95,0.95,4.01l29.88,31.11c0.05,0.05,0.11,0.09,0.16,0.13c0.03,0.02,0.06,0.06,0.1,0.08
			c0.2,0.13,0.42,0.2,0.66,0.2c0.04,0,0.08-0.01,0.12-0.01c0.07,0,0.14-0.01,0.21-0.02l42.25-8.69c1.45-0.3,2.62-1.36,3.05-2.77
			l10.76-34.6c0-0.01,0-0.01,0.01-0.02C134.84,34.48,134.84,34.44,134.85,34.39z M100.74,5.72c0.41-0.06,0.82,0.07,1.12,0.35
			l28.85,27.29l-40.54,8.34L61.5,11.84L100.74,5.72z M120.47,69.27l-40.01,8.22l10.31-33.17l40.79-8.39l-10.07,32.41
			C121.34,68.82,120.95,69.17,120.47,69.27z"/>
		<path class="st6" d="M55.12,22.51c0.34,0.1,0.71,0.07,1.03-0.09c0.66-0.35,0.91-1.17,0.57-1.83l-0.15-0.22
			c-0.06-0.07-0.12-0.13-0.2-0.19c-0.06-0.06-0.13-0.11-0.21-0.15c-0.08-0.04-0.16-0.08-0.25-0.11c-0.34-0.1-0.71-0.07-1.03,0.09
			c-0.16,0.09-0.29,0.2-0.4,0.34c-0.34,0.42-0.41,1-0.17,1.49c0.09,0.15,0.2,0.29,0.34,0.4C54.8,22.37,54.95,22.46,55.12,22.51z"/>
		<path class="st6" d="M76.22,20.59l10.25,11.1c0.46,0.5,1.23,0.57,1.78,0.18c0.55-0.4,0.72-1.15,0.4-1.74
			c-0.46-0.94-0.51-2.02-0.14-3c0.44-0.85,1.14-1.53,2-1.94c0.36,1.32,1.06,2.51,2.05,3.46c2.57,3.14,6.76,4.44,10.66,3.31
			c3.56-0.8,3.73-4.02,3.85-6.37c0.15-2.95,0.38-4.64,3.2-5.28c0.72-0.17,1.17-0.89,1.01-1.61c-0.16-0.72-0.88-1.18-1.61-1.02
			c-3.53,0.8-7.81-0.94-11.95-2.62c-3.85-1.57-7.49-3.04-10.47-2.37c-1.38,0.31-3.68,0.84-4.29,2.79c-0.44,1.4,0.19,2.99,1.91,4.85
			c0.45,0.49,0.92,0.94,1.43,1.36c-2.96-0.4-5.79-1.46-8.29-3.09c-0.56-0.41-1.34-0.33-1.81,0.19
			C75.75,19.3,75.75,20.09,76.22,20.59L76.22,20.59z M86.85,18.48c-1.19-1.29-1.38-2.01-1.32-2.22c0.1-0.31,0.87-0.63,2.3-0.95
			c2.15-0.49,5.41,0.83,8.86,2.24c2.82,1.27,5.78,2.22,8.81,2.83c-0.79,1.57-1.18,3.31-1.14,5.06c-0.15,2.77-0.38,3.56-1.75,3.88
			c-2.95,0.93-6.17-0.07-8.08-2.51c-1.24-1.35-1.46-2.14-1.38-2.39c0.05-0.16,0.35-0.32,0.54-0.37c0.47-0.11,0.85-0.46,0.99-0.92
			c0.14-0.46,0.03-0.96-0.3-1.32c-0.33-0.35-0.82-0.51-1.29-0.4C92.78,21.47,89.95,21.84,86.85,18.48z M87.03,24.49
			c-0.41,0.45-0.74,0.97-0.99,1.52c-0.13,0.29-0.23,0.59-0.31,0.89l-2.96-3.2C84.16,24.1,85.59,24.37,87.03,24.49z"/>
		<path class="st6" d="M63.16,56.39c0.71,0.22,1.47-0.18,1.69-0.89c0.8-2.58,6.06-4.62,7.84-5.13c0.68-0.19,1.09-0.88,0.95-1.57
			c-1.08-5.22-2.39-13.92-1.58-16.51c0.22-0.71-0.18-1.47-0.89-1.69c-0.71-0.22-1.47,0.18-1.69,0.89c-0.8,2.58-6.07,4.62-7.84,5.13
			c-0.68,0.19-1.09,0.88-0.95,1.57c1.08,5.22,2.39,13.92,1.58,16.51C62.05,55.41,62.44,56.17,63.16,56.39z M69.15,35.98
			c0.27,4.09,0.81,8.16,1.61,12.18c-1.99,0.67-3.87,1.63-5.58,2.84c-0.27-4.09-0.8-8.16-1.61-12.17
			C65.56,38.16,67.44,37.2,69.15,35.98z"/>
		<path class="st6" d="M119.09,44.36c-1.25-1.25-3.11-1.68-4.78-1.11c-1.99,0.46-3.77,1.57-5.06,3.15c-0.05-0.07-0.1-0.13-0.16-0.19
			c-1.1-1.03-2.69-1.36-4.11-0.85c-5.32,1.21-8.64,6.91-9.24,8.85c-1.56,5.03,1.32,7,3.44,8.44c2.02,1.38,3.35,2.29,2.38,5.41
			c-0.22,0.71,0.18,1.47,0.89,1.69c0.71,0.22,1.47-0.18,1.69-0.89c1.14-3.68,4.24-6.13,7.52-8.73c3.46-2.73,7.04-5.56,8.43-10.04
			C120.71,48.13,120.34,45.99,119.09,44.36z M109.99,58.02c-2.22,1.62-4.24,3.49-6.02,5.57c-0.81-1.31-1.93-2.4-3.26-3.17
			c-2.02-1.38-3.35-2.29-2.38-5.41c0.38-1.22,3.17-6.09,7.26-7.01c0.43-0.13,0.89-0.15,1.33-0.06c0.08,0.02,0.14,0.06,0.2,0.11
			c0.3,0.33,0.22,1.43,0.02,2.07l0,0.01c-0.14,0.46-0.02,0.96,0.31,1.31c0.33,0.35,0.82,0.5,1.29,0.39
			c0.47-0.11,0.85-0.46,0.98-0.92c0.02-0.07,1.39-4.18,5.19-5.03c1.05-0.24,1.8-0.14,2.2,0.31c0.58,0.92,0.72,2.06,0.39,3.09
			C116.37,52.97,113.27,55.42,109.99,58.02z"/>
	</g>
</g>
<g>
	<path class="st0" d="M40.08,41.47c-0.81-0.16-1.65,0.07-2.27,0.61L6.01,70l9.47,34.96c0.26,0.95,1.01,1.68,1.96,1.92l41.91,10.24
		l31.02-29.99c0.7-0.68,0.98-1.7,0.73-2.64l-9.47-34.96L40.08,41.47z"/>
	<path class="st1" d="M81.62,49.52l-32.16,31.1L6.01,70l31.8-27.92c0.62-0.55,1.46-0.77,2.27-0.61L81.62,49.52z"/>
	<path class="st2" d="M49.46,80.62l9.88,36.5l-41.91-10.24c-0.95-0.24-1.7-0.97-1.96-1.92L6.01,70L49.46,80.62z"/>
	<path class="st2" d="M81.62,49.52l9.47,34.96c0.26,0.95-0.02,1.96-0.73,2.64l-31.02,29.99l-9.88-36.5l28.83-27.87L81.62,49.52z"/>
	<path class="st3" d="M78.29,52.75l9.23,34.1c0.26,0.95-0.02,1.96-0.72,2.64l-27.69,26.78l-9.65-35.65L78.29,52.75z"/>
	<path class="st2" d="M53.59,49.35c-5.32,5.36-17.61,3.79-21.6,7.81c-1.33,1.34-3.99,4.02,1.48,5.47c5.06,1.34,6.41-0.16,6.79-0.5
		c-6.65,6.64-13.94,5.37-13.94,5.37l7.3,1.94l7.3,1.94c0,0-5.94-2.95,0.64-9.61c-0.31,0.35-2.2,2.42,2.86,3.76
		c3.38,1.16,7.13,0.14,9.47-2.56C57.88,58.95,48.26,54.71,53.59,49.35z"/>
	<path class="st4" d="M23.26,91.04c0,0,9.46,9.77,10.52,13.68c-1.06-3.91,4.17-9.79,4.17-9.79s-9.46-9.77-10.52-13.68
		C28.48,85.16,23.26,91.04,23.26,91.04z"/>
	<path class="st4" d="M71.23,68.46c-3.37,3.39-2.03,8.34-2.03,8.34s-1.34-4.95-4.71-1.56c-3.37,3.4-3.16,9.47-2.71,11.12
		c2.23,8.24,10.1,0.33,12.34,8.58c-2.23-8.24,5.64-16.16,3.41-24.4C77.07,68.88,74.6,65.07,71.23,68.46z"/>
	<path class="st5" d="M17.44,106.88l41.91,10.24l1.66-1.61l-39.66-9.69c-0.95-0.24-1.7-0.97-1.96-1.92L9.92,68.94l31.09-27.29
		l-0.93-0.18c-0.81-0.16-1.65,0.07-2.27,0.61L6.01,70l9.47,34.96C15.73,105.91,16.48,106.64,17.44,106.88z"/>
	<path class="st5" d="M7.31,69.65l9.47,34.96l-2.61,0.71L4.7,70.35L7.31,69.65z"/>
	<g>
		<path class="st6" d="M82.86,49.02c-0.04-0.12-0.1-0.23-0.18-0.31c-0.04-0.05-0.08-0.11-0.13-0.15c-0.04-0.03-0.08-0.06-0.12-0.09
			c-0.05-0.04-0.11-0.08-0.17-0.11c-0.05-0.02-0.1-0.04-0.15-0.06c-0.04-0.02-0.09-0.04-0.14-0.06c-0.02,0-0.04,0-0.06-0.01
			c-0.02,0-0.03-0.01-0.05-0.02l-41.54-8.06l-0.01,0c-1.22-0.23-2.47,0.11-3.4,0.92L5.12,68.98c-0.05,0.05-0.09,0.1-0.13,0.16
			c-0.03,0.03-0.05,0.05-0.07,0.09c-0.09,0.13-0.16,0.28-0.2,0.43c0,0.01-0.01,0.02-0.01,0.03c0,0.02,0,0.05,0,0.07
			c-0.03,0.13-0.03,0.26-0.02,0.39c0,0.04,0.01,0.08,0.01,0.12c0.01,0.02,0,0.04,0.01,0.07l0.01,0.03l1.41,5.21
			c0.2,0.72,0.94,1.15,1.66,0.95c0.72-0.19,1.15-0.94,0.95-1.66l-0.81-3.01l40.46,9.89l9.08,33.52l-39.68-9.7
			c-0.48-0.12-0.85-0.48-0.98-0.96l-5.23-19.32c-0.2-0.72-0.94-1.15-1.66-0.95c-0.72,0.2-1.15,0.94-0.95,1.66l5.23,19.32
			c0.39,1.43,1.52,2.53,2.95,2.88l41.9,10.24c0.07,0.01,0.14,0.02,0.21,0.02c0.04,0,0.08,0.01,0.12,0.01c0.23,0,0.46-0.06,0.66-0.18
			c0.04-0.02,0.06-0.05,0.1-0.07c0.06-0.04,0.11-0.08,0.17-0.13l31.01-29.99c1.06-1.03,1.48-2.55,1.1-3.97l-9.47-34.98
			c0-0.01,0-0.01,0-0.02C82.9,49.1,82.87,49.06,82.86,49.02z M38.69,43.1c0.31-0.27,0.73-0.38,1.13-0.31l38.99,7.57L49.06,79.13
			L8.85,69.3L38.69,43.1z M89.42,86.17l-29.37,28.39l-9.08-33.52l29.94-28.96l8.87,32.76C89.91,85.32,89.77,85.83,89.42,86.17z"/>
		<path class="st6" d="M9.18,81.73c0.34-0.1,0.64-0.32,0.82-0.63c0.36-0.65,0.14-1.47-0.5-1.85l-0.24-0.1
			C9.18,79.12,9.09,79.1,9,79.09c-0.08-0.02-0.17-0.02-0.26-0.01c-0.09,0.01-0.18,0.02-0.27,0.04c-0.34,0.1-0.64,0.32-0.82,0.63
			c-0.08,0.16-0.14,0.33-0.16,0.5c-0.07,0.54,0.19,1.07,0.66,1.35c0.16,0.08,0.33,0.14,0.5,0.16C8.84,81.79,9.01,81.78,9.18,81.73z"
			/>
		<path class="st6" d="M25.97,68.8l14.6,3.87c0.66,0.17,1.34-0.17,1.6-0.8c0.25-0.63,0-1.35-0.6-1.68
			c-0.89-0.54-1.52-1.43-1.72-2.46c-0.09-0.95,0.14-1.9,0.64-2.71c1.01,0.92,2.25,1.55,3.59,1.82c3.85,1.27,8.09,0.12,10.77-2.92
			c2.58-2.59,0.99-5.39-0.16-7.44c-1.45-2.57-2.17-4.12-0.13-6.17c0.52-0.53,0.51-1.38-0.01-1.9c-0.53-0.52-1.38-0.52-1.9,0
			c-2.55,2.57-7.1,3.4-11.49,4.19c-4.09,0.74-7.96,1.45-10.11,3.61c-1,1-2.66,2.68-2.12,4.65c0.38,1.42,1.76,2.42,4.22,3.07
			c0.64,0.17,1.28,0.3,1.94,0.38c-2.71,1.24-5.67,1.87-8.65,1.84c-0.69-0.05-1.31,0.44-1.42,1.13C24.88,67.96,25.3,68.62,25.97,68.8
			L25.97,68.8z M33.81,61.32c-1.69-0.45-2.24-0.96-2.3-1.17c-0.08-0.31,0.4-1,1.43-2.04c1.55-1.56,5.01-2.2,8.68-2.86
			c3.06-0.44,6.07-1.22,8.95-2.34c0.17,1.75,0.78,3.43,1.75,4.88c1.36,2.42,1.59,3.21,0.6,4.21c-1.99,2.37-5.25,3.25-8.16,2.21
			c-1.77-0.47-2.38-1.02-2.44-1.28c-0.04-0.16,0.12-0.45,0.26-0.6c0.34-0.34,0.47-0.84,0.34-1.31c-0.13-0.47-0.49-0.83-0.96-0.95
			c-0.47-0.12-0.96,0.01-1.3,0.36C40.42,60.66,38.23,62.49,33.81,61.32z M37.19,66.3c-0.1,0.6-0.1,1.21-0.02,1.82
			c0.04,0.31,0.12,0.62,0.21,0.92l-4.22-1.12C34.55,67.51,35.9,66.97,37.19,66.3z"/>
		<path class="st6" d="M34.13,106.02c0.72-0.2,1.15-0.94,0.95-1.66c-0.71-2.61,2.64-7.15,3.87-8.54c0.47-0.53,0.45-1.33-0.04-1.84
			c-3.7-3.83-9.48-10.47-10.19-13.09c-0.19-0.72-0.94-1.15-1.66-0.95c-0.72,0.19-1.15,0.94-0.95,1.66c0.71,2.61-2.64,7.15-3.87,8.54
			c-0.47,0.53-0.45,1.33,0.04,1.84c3.7,3.83,9.48,10.47,10.19,13.09C32.67,105.79,33.41,106.22,34.13,106.02z M28.25,85.58
			c2.42,3.31,5.05,6.46,7.89,9.42c-1.32,1.63-2.39,3.45-3.18,5.39c-2.42-3.31-5.05-6.45-7.89-9.41
			C26.39,89.34,27.46,87.52,28.25,85.58z"/>
		<path class="st6" d="M74.9,65.88c-1.73-0.38-3.52,0.25-4.63,1.63c-1.43,1.45-2.34,3.34-2.59,5.37c-0.08-0.03-0.15-0.06-0.23-0.08
			c-1.48-0.28-3,0.3-3.93,1.48c-3.85,3.87-3.59,10.46-3.06,12.42c1.38,5.08,4.87,5.2,7.43,5.29c2.44,0.08,4.05,0.13,4.91,3.29
			c0.19,0.72,0.94,1.15,1.66,0.95c0.72-0.2,1.15-0.94,0.95-1.66c-1.01-3.72,0.3-7.45,1.67-11.4c1.46-4.16,2.96-8.47,1.74-12.99
			C78.29,68.19,76.83,66.59,74.9,65.88z M74.54,82.29c-1.01,2.55-1.71,5.22-2.1,7.93c-1.38-0.67-2.91-0.99-4.45-0.93
			c-2.44-0.08-4.05-0.13-4.91-3.29c-0.33-1.24-0.59-6.84,2.36-9.81c0.3-0.34,0.67-0.6,1.09-0.77c0.07-0.02,0.15-0.03,0.23-0.01
			c0.43,0.11,0.95,1.09,1.13,1.74l0,0.01c0.13,0.46,0.5,0.82,0.96,0.94c0.47,0.12,0.96-0.02,1.3-0.36c0.34-0.35,0.47-0.84,0.34-1.31
			c-0.02-0.07-1.07-4.27,1.69-7.03c0.76-0.77,1.44-1.08,2.03-0.92c0.98,0.47,1.71,1.35,1.99,2.4C77.21,74.6,75.91,78.34,74.54,82.29
			z"/>
	</g>
</g>
</svg>
